<?xml version="1.0" encoding="UTF-8" standalone="no"?>
<!DOCTYPE svg PUBLIC "-//W3C//DTD SVG 1.1//EN"
 "http://www.w3.org/Graphics/SVG/1.1/DTD/svg11.dtd">
<!-- Generated by graphviz version 9.0.0 (20230911.1827)
 -->
<!-- Title: G Pages: 1 -->
<svg width="777pt" height="739pt"
 viewBox="0.00 0.00 777.45 738.95" xmlns="http://www.w3.org/2000/svg" xmlns:xlink="http://www.w3.org/1999/xlink">
<g id="graph0" class="graph" transform="scale(1 1) rotate(0) translate(21.6 717.35)">
<title>G</title>
<polygon fill="#111111" stroke="none" points="-21.6,21.6 -21.6,-717.35 755.85,-717.35 755.85,21.6 -21.6,21.6"/>
<!-- ../public/newspaper.jpeg -->
<g id="node1" class="node">
<title>../public/newspaper.jpeg</title>
<path fill="none" stroke="#cfffac" d="M561.83,-107.75C561.83,-107.75 416.92,-107.75 416.92,-107.75 412.96,-107.75 409,-103.79 409,-99.83 409,-99.83 409,-91.92 409,-91.92 409,-87.96 412.96,-84 416.92,-84 416.92,-84 561.83,-84 561.83,-84 565.79,-84 569.75,-87.96 569.75,-91.92 569.75,-91.92 569.75,-99.83 569.75,-99.83 569.75,-103.79 565.79,-107.75 561.83,-107.75"/>
<text text-anchor="middle" x="489.38" y="-90.45" font-family="Arial" font-size="14.00" fill="#cfffac">../public/newspaper.jpeg</text>
</g>
<!-- app/article/[slug]/page.tsx -->
<g id="node2" class="node">
<title>app/article/[slug]/page.tsx</title>
<path fill="none" stroke="#cfffac" d="M245.08,-107.75C245.08,-107.75 91.92,-107.75 91.92,-107.75 87.96,-107.75 84,-103.79 84,-99.83 84,-99.83 84,-91.92 84,-91.92 84,-87.96 87.96,-84 91.92,-84 91.92,-84 245.08,-84 245.08,-84 249.04,-84 253,-87.96 253,-91.92 253,-91.92 253,-99.83 253,-99.83 253,-103.79 249.04,-107.75 245.08,-107.75"/>
<text text-anchor="middle" x="168.5" y="-90.45" font-family="Arial" font-size="14.00" fill="#cfffac">app/article/[slug]/page.tsx</text>
</g>
<!-- app/globals.css -->
<g id="node3" class="node">
<title>app/globals.css</title>
<path fill="none" stroke="#cfffac" d="M535.96,-149.75C535.96,-149.75 442.79,-149.75 442.79,-149.75 438.83,-149.75 434.88,-145.79 434.88,-141.83 434.88,-141.83 434.88,-133.92 434.88,-133.92 434.88,-129.96 438.83,-126 442.79,-126 442.79,-126 535.96,-126 535.96,-126 539.92,-126 543.88,-129.96 543.88,-133.92 543.88,-133.92 543.88,-141.83 543.88,-141.83 543.88,-145.79 539.92,-149.75 535.96,-149.75"/>
<text text-anchor="middle" x="489.38" y="-132.45" font-family="Arial" font-size="14.00" fill="#cfffac">app/globals.css</text>
</g>
<!-- app/history/page.tsx -->
<g id="node4" class="node">
<title>app/history/page.tsx</title>
<path fill="none" stroke="#cfffac" d="M228.96,-191.75C228.96,-191.75 108.04,-191.75 108.04,-191.75 104.08,-191.75 100.12,-187.79 100.12,-183.83 100.12,-183.83 100.12,-175.92 100.12,-175.92 100.12,-171.96 104.08,-168 108.04,-168 108.04,-168 228.96,-168 228.96,-168 232.92,-168 236.88,-171.96 236.88,-175.92 236.88,-175.92 236.88,-183.83 236.88,-183.83 236.88,-187.79 232.92,-191.75 228.96,-191.75"/>
<text text-anchor="middle" x="168.5" y="-174.45" font-family="Arial" font-size="14.00" fill="#cfffac">app/history/page.tsx</text>
</g>
<!-- app/layout.tsx -->
<g id="node5" class="node">
<title>app/layout.tsx</title>
<path fill="none" stroke="#c6c5fe" d="M210.21,-149.75C210.21,-149.75 126.79,-149.75 126.79,-149.75 122.83,-149.75 118.88,-145.79 118.88,-141.83 118.88,-141.83 118.88,-133.92 118.88,-133.92 118.88,-129.96 122.83,-126 126.79,-126 126.79,-126 210.21,-126 210.21,-126 214.17,-126 218.12,-129.96 218.12,-133.92 218.12,-133.92 218.12,-141.83 218.12,-141.83 218.12,-145.79 214.17,-149.75 210.21,-149.75"/>
<text text-anchor="middle" x="168.5" y="-132.45" font-family="Arial" font-size="14.00" fill="#c6c5fe">app/layout.tsx</text>
</g>
<!-- app/layout.tsx&#45;&gt;app/globals.css -->
<g id="edge1" class="edge">
<title>app/layout.tsx&#45;&gt;app/globals.css</title>
<path fill="none" stroke="#757575" d="M218.28,-137.88C273.1,-137.88 362.38,-137.88 423.16,-137.88"/>
<polygon fill="#757575" stroke="#757575" points="423.02,-141.38 433.02,-137.88 423.02,-134.38 423.02,-141.38"/>
</g>
<!-- app/page.tsx -->
<g id="node6" class="node">
<title>app/page.tsx</title>
<path fill="none" stroke="#cfffac" d="M207.21,-233.75C207.21,-233.75 129.79,-233.75 129.79,-233.75 125.83,-233.75 121.88,-229.79 121.88,-225.83 121.88,-225.83 121.88,-217.92 121.88,-217.92 121.88,-213.96 125.83,-210 129.79,-210 129.79,-210 207.21,-210 207.21,-210 211.17,-210 215.12,-213.96 215.12,-217.92 215.12,-217.92 215.12,-225.83 215.12,-225.83 215.12,-229.79 211.17,-233.75 207.21,-233.75"/>
<text text-anchor="middle" x="168.5" y="-216.45" font-family="Arial" font-size="14.00" fill="#cfffac">app/page.tsx</text>
</g>
<!-- components/ArticleCard.tsx -->
<g id="node7" class="node">
<title>components/ArticleCard.tsx</title>
<path fill="none" stroke="#c6c5fe" d="M251.46,-65.75C251.46,-65.75 85.54,-65.75 85.54,-65.75 81.58,-65.75 77.62,-61.79 77.62,-57.83 77.62,-57.83 77.62,-49.92 77.62,-49.92 77.62,-45.96 81.58,-42 85.54,-42 85.54,-42 251.46,-42 251.46,-42 255.42,-42 259.38,-45.96 259.38,-49.92 259.38,-49.92 259.38,-57.83 259.38,-57.83 259.38,-61.79 255.42,-65.75 251.46,-65.75"/>
<text text-anchor="middle" x="168.5" y="-48.45" font-family="Arial" font-size="14.00" fill="#c6c5fe">components/ArticleCard.tsx</text>
</g>
<!-- components/ArticleCard.tsx&#45;&gt;../public/newspaper.jpeg -->
<g id="edge2" class="edge">
<title>components/ArticleCard.tsx&#45;&gt;../public/newspaper.jpeg</title>
<path fill="none" stroke="#757575" d="M259.5,-64.94C284.6,-68.08 311.87,-71.56 337,-74.88 356.55,-77.46 377.51,-80.31 397.41,-83.06"/>
<polygon fill="#757575" stroke="#757575" points="396.78,-86.5 407.16,-84.41 397.74,-79.57 396.78,-86.5"/>
</g>
<!-- components/TitleEditorContext.tsx -->
<g id="node8" class="node">
<title>components/TitleEditorContext.tsx</title>
<path fill="none" stroke="#cfffac" d="M592.58,-23.75C592.58,-23.75 386.17,-23.75 386.17,-23.75 382.21,-23.75 378.25,-19.79 378.25,-15.83 378.25,-15.83 378.25,-7.92 378.25,-7.92 378.25,-3.96 382.21,0 386.17,0 386.17,0 592.58,0 592.58,0 596.54,0 600.5,-3.96 600.5,-7.92 600.5,-7.92 600.5,-15.83 600.5,-15.83 600.5,-19.79 596.54,-23.75 592.58,-23.75"/>
<text text-anchor="middle" x="489.38" y="-6.45" font-family="Arial" font-size="14.00" fill="#cfffac">components/TitleEditorContext.tsx</text>
</g>
<!-- components/ArticleCard.tsx&#45;&gt;components/TitleEditorContext.tsx -->
<g id="edge3" class="edge">
<title>components/ArticleCard.tsx&#45;&gt;components/TitleEditorContext.tsx</title>
<path fill="none" stroke="#757575" d="M259.5,-42.81C284.6,-39.67 311.87,-36.19 337,-32.88 353.94,-30.64 371.93,-28.2 389.38,-25.8"/>
<polygon fill="#757575" stroke="#757575" points="389.82,-29.27 399.25,-24.44 388.87,-22.34 389.82,-29.27"/>
</g>
<!-- components/ViewHistoryContext.tsx -->
<g id="node9" class="node">
<title>components/ViewHistoryContext.tsx</title>
<path fill="none" stroke="#cfffac" d="M597.83,-65.75C597.83,-65.75 380.92,-65.75 380.92,-65.75 376.96,-65.75 373,-61.79 373,-57.83 373,-57.83 373,-49.92 373,-49.92 373,-45.96 376.96,-42 380.92,-42 380.92,-42 597.83,-42 597.83,-42 601.79,-42 605.75,-45.96 605.75,-49.92 605.75,-49.92 605.75,-57.83 605.75,-57.83 605.75,-61.79 601.79,-65.75 597.83,-65.75"/>
<text text-anchor="middle" x="489.38" y="-48.45" font-family="Arial" font-size="14.00" fill="#cfffac">components/ViewHistoryContext.tsx</text>
</g>
<!-- components/ArticleCard.tsx&#45;&gt;components/ViewHistoryContext.tsx -->
<g id="edge4" class="edge">
<title>components/ArticleCard.tsx&#45;&gt;components/ViewHistoryContext.tsx</title>
<path fill="none" stroke="#757575" d="M259.6,-53.88C291.12,-53.88 327.13,-53.88 361.11,-53.88"/>
<polygon fill="#757575" stroke="#757575" points="361.03,-57.38 371.03,-53.88 361.03,-50.38 361.03,-57.38"/>
</g>
<!-- components/ArticleList/ArtitleList.tsx -->
<g id="node10" class="node">
<title>components/ArticleList/ArtitleList.tsx</title>
<path fill="none" stroke="#cfffac" d="M597.83,-317.75C597.83,-317.75 380.92,-317.75 380.92,-317.75 376.96,-317.75 373,-313.79 373,-309.83 373,-309.83 373,-301.92 373,-301.92 373,-297.96 376.96,-294 380.92,-294 380.92,-294 597.83,-294 597.83,-294 601.79,-294 605.75,-297.96 605.75,-301.92 605.75,-301.92 605.75,-309.83 605.75,-309.83 605.75,-313.79 601.79,-317.75 597.83,-317.75"/>
<text text-anchor="middle" x="489.38" y="-300.45" font-family="Arial" font-size="14.00" fill="#cfffac">components/ArticleList/ArtitleList.tsx</text>
</g>
<!-- components/ArticleList/DefaultArticlesContainer.tsx -->
<g id="node11" class="node">
<title>components/ArticleList/DefaultArticlesContainer.tsx</title>
<path fill="none" stroke="#c6c5fe" d="M321.58,-359.75C321.58,-359.75 15.42,-359.75 15.42,-359.75 11.46,-359.75 7.5,-355.79 7.5,-351.83 7.5,-351.83 7.5,-343.92 7.5,-343.92 7.5,-339.96 11.46,-336 15.42,-336 15.42,-336 321.58,-336 321.58,-336 325.54,-336 329.5,-339.96 329.5,-343.92 329.5,-343.92 329.5,-351.83 329.5,-351.83 329.5,-355.79 325.54,-359.75 321.58,-359.75"/>
<text text-anchor="middle" x="168.5" y="-342.45" font-family="Arial" font-size="14.00" fill="#c6c5fe">components/ArticleList/DefaultArticlesContainer.tsx</text>
</g>
<!-- components/ArticleList/DefaultArticlesContainer.tsx&#45;&gt;components/ArticleList/ArtitleList.tsx -->
<g id="edge5" class="edge">
<title>components/ArticleList/DefaultArticlesContainer.tsx&#45;&gt;components/ArticleList/ArtitleList.tsx</title>
<path fill="none" stroke="#757575" d="M269.61,-335.54C291.81,-332.75 315.21,-329.75 337,-326.88 353.94,-324.64 371.93,-322.2 389.38,-319.8"/>
<polygon fill="#757575" stroke="#757575" points="389.82,-323.27 399.25,-318.44 388.87,-316.34 389.82,-323.27"/>
</g>
<!-- components/ArticleList/FilteredArticlesContainer.tsx -->
<g id="node12" class="node">
<title>components/ArticleList/FilteredArticlesContainer.tsx</title>
<path fill="none" stroke="#c6c5fe" d="M322.71,-317.75C322.71,-317.75 14.29,-317.75 14.29,-317.75 10.33,-317.75 6.38,-313.79 6.38,-309.83 6.38,-309.83 6.38,-301.92 6.38,-301.92 6.38,-297.96 10.33,-294 14.29,-294 14.29,-294 322.71,-294 322.71,-294 326.67,-294 330.62,-297.96 330.62,-301.92 330.62,-301.92 330.62,-309.83 330.62,-309.83 330.62,-313.79 326.67,-317.75 322.71,-317.75"/>
<text text-anchor="middle" x="168.5" y="-300.45" font-family="Arial" font-size="14.00" fill="#c6c5fe">components/ArticleList/FilteredArticlesContainer.tsx</text>
</g>
<!-- components/ArticleList/FilteredArticlesContainer.tsx&#45;&gt;components/ArticleList/ArtitleList.tsx -->
<g id="edge6" class="edge">
<title>components/ArticleList/FilteredArticlesContainer.tsx&#45;&gt;components/ArticleList/ArtitleList.tsx</title>
<path fill="none" stroke="#757575" d="M330.81,-305.88C341.13,-305.88 351.45,-305.88 361.58,-305.88"/>
<polygon fill="#757575" stroke="#757575" points="361.42,-309.38 371.42,-305.88 361.42,-302.38 361.42,-309.38"/>
</g>
<!-- components/ArticleList/SearchedArticlesContainer.tsx -->
<g id="node13" class="node">
<title>components/ArticleList/SearchedArticlesContainer.tsx</title>
<path fill="none" stroke="#c6c5fe" d="M329.08,-275.75C329.08,-275.75 7.92,-275.75 7.92,-275.75 3.96,-275.75 0,-271.79 0,-267.83 0,-267.83 0,-259.92 0,-259.92 0,-255.96 3.96,-252 7.92,-252 7.92,-252 329.08,-252 329.08,-252 333.04,-252 337,-255.96 337,-259.92 337,-259.92 337,-267.83 337,-267.83 337,-271.79 333.04,-275.75 329.08,-275.75"/>
<text text-anchor="middle" x="168.5" y="-258.45" font-family="Arial" font-size="14.00" fill="#c6c5fe">components/ArticleList/SearchedArticlesContainer.tsx</text>
</g>
<!-- components/ArticleList/SearchedArticlesContainer.tsx&#45;&gt;components/ArticleList/ArtitleList.tsx -->
<g id="edge7" class="edge">
<title>components/ArticleList/SearchedArticlesContainer.tsx&#45;&gt;components/ArticleList/ArtitleList.tsx</title>
<path fill="none" stroke="#757575" d="M269.61,-276.21C291.81,-279 315.21,-282 337,-284.88 353.94,-287.11 371.93,-289.55 389.38,-291.95"/>
<polygon fill="#757575" stroke="#757575" points="388.87,-295.41 399.25,-293.31 389.82,-288.48 388.87,-295.41"/>
</g>
<!-- components/ErrorPage.tsx -->
<g id="node14" class="node">
<title>components/ErrorPage.tsx</title>
<path fill="none" stroke="#cfffac" d="M248.83,-401.75C248.83,-401.75 88.17,-401.75 88.17,-401.75 84.21,-401.75 80.25,-397.79 80.25,-393.83 80.25,-393.83 80.25,-385.92 80.25,-385.92 80.25,-381.96 84.21,-378 88.17,-378 88.17,-378 248.83,-378 248.83,-378 252.79,-378 256.75,-381.96 256.75,-385.92 256.75,-385.92 256.75,-393.83 256.75,-393.83 256.75,-397.79 252.79,-401.75 248.83,-401.75"/>
<text text-anchor="middle" x="168.5" y="-384.45" font-family="Arial" font-size="14.00" fill="#cfffac">components/ErrorPage.tsx</text>
</g>
<!-- components/Filter.tsx -->
<g id="node15" class="node">
<title>components/Filter.tsx</title>
<path fill="none" stroke="#cfffac" d="M232.71,-443.75C232.71,-443.75 104.29,-443.75 104.29,-443.75 100.33,-443.75 96.38,-439.79 96.38,-435.83 96.38,-435.83 96.38,-427.92 96.38,-427.92 96.38,-423.96 100.33,-420 104.29,-420 104.29,-420 232.71,-420 232.71,-420 236.67,-420 240.62,-423.96 240.62,-427.92 240.62,-427.92 240.62,-435.83 240.62,-435.83 240.62,-439.79 236.67,-443.75 232.71,-443.75"/>
<text text-anchor="middle" x="168.5" y="-426.45" font-family="Arial" font-size="14.00" fill="#cfffac">components/Filter.tsx</text>
</g>
<!-- components/Nav.tsx -->
<g id="node16" class="node">
<title>components/Nav.tsx</title>
<path fill="none" stroke="#c6c5fe" d="M229.71,-485.75C229.71,-485.75 107.29,-485.75 107.29,-485.75 103.33,-485.75 99.38,-481.79 99.38,-477.83 99.38,-477.83 99.38,-469.92 99.38,-469.92 99.38,-465.96 103.33,-462 107.29,-462 107.29,-462 229.71,-462 229.71,-462 233.67,-462 237.62,-465.96 237.62,-469.92 237.62,-469.92 237.62,-477.83 237.62,-477.83 237.62,-481.79 233.67,-485.75 229.71,-485.75"/>
<text text-anchor="middle" x="168.5" y="-468.45" font-family="Arial" font-size="14.00" fill="#c6c5fe">components/Nav.tsx</text>
</g>
<!-- components/Theme.tsx -->
<g id="node17" class="node">
<title>components/Theme.tsx</title>
<path fill="none" stroke="#cfffac" d="M560.33,-485.75C560.33,-485.75 418.42,-485.75 418.42,-485.75 414.46,-485.75 410.5,-481.79 410.5,-477.83 410.5,-477.83 410.5,-469.92 410.5,-469.92 410.5,-465.96 414.46,-462 418.42,-462 418.42,-462 560.33,-462 560.33,-462 564.29,-462 568.25,-465.96 568.25,-469.92 568.25,-469.92 568.25,-477.83 568.25,-477.83 568.25,-481.79 564.29,-485.75 560.33,-485.75"/>
<text text-anchor="middle" x="489.38" y="-468.45" font-family="Arial" font-size="14.00" fill="#cfffac">components/Theme.tsx</text>
</g>
<!-- components/Nav.tsx&#45;&gt;components/Theme.tsx -->
<g id="edge8" class="edge">
<title>components/Nav.tsx&#45;&gt;components/Theme.tsx</title>
<path fill="none" stroke="#757575" d="M237.91,-473.88C284.95,-473.88 347.89,-473.88 398.91,-473.88"/>
<polygon fill="#757575" stroke="#757575" points="398.75,-477.38 408.75,-473.88 398.75,-470.38 398.75,-477.38"/>
</g>
<!-- components/PageLoader.tsx -->
<g id="node18" class="node">
<title>components/PageLoader.tsx</title>
<path fill="none" stroke="#cfffac" d="M254.46,-527.75C254.46,-527.75 82.54,-527.75 82.54,-527.75 78.58,-527.75 74.62,-523.79 74.62,-519.83 74.62,-519.83 74.62,-511.92 74.62,-511.92 74.62,-507.96 78.58,-504 82.54,-504 82.54,-504 254.46,-504 254.46,-504 258.42,-504 262.38,-507.96 262.38,-511.92 262.38,-511.92 262.38,-519.83 262.38,-519.83 262.38,-523.79 258.42,-527.75 254.46,-527.75"/>
<text text-anchor="middle" x="168.5" y="-510.45" font-family="Arial" font-size="14.00" fill="#cfffac">components/PageLoader.tsx</text>
</g>
<!-- components/RootProvider.tsx -->
<g id="node19" class="node">
<title>components/RootProvider.tsx</title>
<path fill="none" stroke="#cfffac" d="M257.08,-569.75C257.08,-569.75 79.92,-569.75 79.92,-569.75 75.96,-569.75 72,-565.79 72,-561.83 72,-561.83 72,-553.92 72,-553.92 72,-549.96 75.96,-546 79.92,-546 79.92,-546 257.08,-546 257.08,-546 261.04,-546 265,-549.96 265,-553.92 265,-553.92 265,-561.83 265,-561.83 265,-565.79 261.04,-569.75 257.08,-569.75"/>
<text text-anchor="middle" x="168.5" y="-552.45" font-family="Arial" font-size="14.00" fill="#cfffac">components/RootProvider.tsx</text>
</g>
<!-- components/TitleEditor.tsx -->
<g id="node20" class="node">
<title>components/TitleEditor.tsx</title>
<path fill="none" stroke="#c6c5fe" d="M248.08,-23.75C248.08,-23.75 88.92,-23.75 88.92,-23.75 84.96,-23.75 81,-19.79 81,-15.83 81,-15.83 81,-7.92 81,-7.92 81,-3.96 84.96,0 88.92,0 88.92,0 248.08,0 248.08,0 252.04,0 256,-3.96 256,-7.92 256,-7.92 256,-15.83 256,-15.83 256,-19.79 252.04,-23.75 248.08,-23.75"/>
<text text-anchor="middle" x="168.5" y="-6.45" font-family="Arial" font-size="14.00" fill="#c6c5fe">components/TitleEditor.tsx</text>
</g>
<!-- components/TitleEditor.tsx&#45;&gt;components/TitleEditorContext.tsx -->
<g id="edge9" class="edge">
<title>components/TitleEditor.tsx&#45;&gt;components/TitleEditorContext.tsx</title>
<path fill="none" stroke="#757575" d="M256.21,-11.88C290.22,-11.88 329.86,-11.88 366.65,-11.88"/>
<polygon fill="#757575" stroke="#757575" points="366.45,-15.38 376.45,-11.88 366.45,-8.38 366.45,-15.38"/>
</g>
<!-- data/api.ts -->
<g id="node21" class="node">
<title>data/api.ts</title>
<path fill="none" stroke="#cfffac" d="M719.21,-652.75C719.21,-652.75 656.79,-652.75 656.79,-652.75 652.83,-652.75 648.88,-648.79 648.88,-644.83 648.88,-644.83 648.88,-636.92 648.88,-636.92 648.88,-632.96 652.83,-629 656.79,-629 656.79,-629 719.21,-629 719.21,-629 723.17,-629 727.12,-632.96 727.12,-636.92 727.12,-636.92 727.12,-644.83 727.12,-644.83 727.12,-648.79 723.17,-652.75 719.21,-652.75"/>
<text text-anchor="middle" x="688" y="-635.45" font-family="Arial" font-size="14.00" fill="#cfffac">data/api.ts</text>
</g>
<!-- data/index.ts -->
<g id="node22" class="node">
<title>data/index.ts</title>
<path fill="none" stroke="#c6c5fe" d="M206.83,-611.75C206.83,-611.75 130.17,-611.75 130.17,-611.75 126.21,-611.75 122.25,-607.79 122.25,-603.83 122.25,-603.83 122.25,-595.92 122.25,-595.92 122.25,-591.96 126.21,-588 130.17,-588 130.17,-588 206.83,-588 206.83,-588 210.79,-588 214.75,-591.96 214.75,-595.92 214.75,-595.92 214.75,-603.83 214.75,-603.83 214.75,-607.79 210.79,-611.75 206.83,-611.75"/>
<text text-anchor="middle" x="168.5" y="-594.45" font-family="Arial" font-size="14.00" fill="#c6c5fe">data/index.ts</text>
</g>
<!-- data/query.ts -->
<g id="node23" class="node">
<title>data/query.ts</title>
<path fill="none" stroke="#c6c5fe" d="M528.08,-651.75C528.08,-651.75 450.67,-651.75 450.67,-651.75 446.71,-651.75 442.75,-647.79 442.75,-643.83 442.75,-643.83 442.75,-635.92 442.75,-635.92 442.75,-631.96 446.71,-628 450.67,-628 450.67,-628 528.08,-628 528.08,-628 532.04,-628 536,-631.96 536,-635.92 536,-635.92 536,-643.83 536,-643.83 536,-647.79 532.04,-651.75 528.08,-651.75"/>
<text text-anchor="middle" x="489.38" y="-634.45" font-family="Arial" font-size="14.00" fill="#c6c5fe">data/query.ts</text>
</g>
<!-- data/index.ts&#45;&gt;data/query.ts -->
<g id="edge10" class="edge">
<title>data/index.ts&#45;&gt;data/query.ts</title>
<path fill="none" stroke="#757575" d="M215,-605.58C248.69,-609.8 295.71,-615.7 337,-620.88 368.07,-624.77 402.72,-629.12 431.02,-632.67"/>
<polygon fill="#757575" stroke="#757575" points="430.47,-636.13 440.83,-633.91 431.35,-629.19 430.47,-636.13"/>
</g>
<!-- data/types.ts -->
<g id="node24" class="node">
<title>data/types.ts</title>
<path fill="none" stroke="#cfffac" d="M726.33,-610.75C726.33,-610.75 649.67,-610.75 649.67,-610.75 645.71,-610.75 641.75,-606.79 641.75,-602.83 641.75,-602.83 641.75,-594.92 641.75,-594.92 641.75,-590.96 645.71,-587 649.67,-587 649.67,-587 726.33,-587 726.33,-587 730.29,-587 734.25,-590.96 734.25,-594.92 734.25,-594.92 734.25,-602.83 734.25,-602.83 734.25,-606.79 730.29,-610.75 726.33,-610.75"/>
<text text-anchor="middle" x="688" y="-593.45" font-family="Arial" font-size="14.00" fill="#cfffac">data/types.ts</text>
</g>
<!-- data/index.ts&#45;&gt;data/types.ts -->
<g id="edge11" class="edge">
<title>data/index.ts&#45;&gt;data/types.ts</title>
<path fill="none" stroke="#757575" d="M214.97,-599.79C309.37,-599.6 526.42,-599.19 629.99,-598.99"/>
<polygon fill="#757575" stroke="#757575" points="629.94,-602.49 639.93,-598.97 629.93,-595.49 629.94,-602.49"/>
</g>
<!-- data/utils.ts -->
<g id="node25" class="node">
<title>data/utils.ts</title>
<path fill="none" stroke="#c6c5fe" d="M523.58,-571.75C523.58,-571.75 455.17,-571.75 455.17,-571.75 451.21,-571.75 447.25,-567.79 447.25,-563.83 447.25,-563.83 447.25,-555.92 447.25,-555.92 447.25,-551.96 451.21,-548 455.17,-548 455.17,-548 523.58,-548 523.58,-548 527.54,-548 531.5,-551.96 531.5,-555.92 531.5,-555.92 531.5,-563.83 531.5,-563.83 531.5,-567.79 527.54,-571.75 523.58,-571.75"/>
<text text-anchor="middle" x="489.38" y="-554.45" font-family="Arial" font-size="14.00" fill="#c6c5fe">data/utils.ts</text>
</g>
<!-- data/index.ts&#45;&gt;data/utils.ts -->
<g id="edge12" class="edge">
<title>data/index.ts&#45;&gt;data/utils.ts</title>
<path fill="none" stroke="#757575" d="M215,-594.17C248.69,-589.95 295.71,-584.05 337,-578.88 369.83,-574.76 406.66,-570.13 435.78,-566.48"/>
<polygon fill="#757575" stroke="#757575" points="435.95,-569.99 445.43,-565.27 435.07,-563.04 435.95,-569.99"/>
</g>
<!-- data/query.ts&#45;&gt;data/api.ts -->
<g id="edge13" class="edge">
<title>data/query.ts&#45;&gt;data/api.ts</title>
<path fill="none" stroke="#757575" d="M536.47,-640.11C566.67,-640.26 606.12,-640.46 637.06,-640.62"/>
<polygon fill="#757575" stroke="#757575" points="636.93,-644.12 646.95,-640.67 636.97,-637.12 636.93,-644.12"/>
</g>
<!-- data/query.ts&#45;&gt;data/types.ts -->
<g id="edge14" class="edge">
<title>data/query.ts&#45;&gt;data/types.ts</title>
<path fill="none" stroke="#757575" d="M536.47,-630.26C564.56,-624.41 600.64,-616.88 630.44,-610.67"/>
<polygon fill="#757575" stroke="#757575" points="630.97,-614.13 640.05,-608.67 629.54,-607.28 630.97,-614.13"/>
</g>
<!-- data/utils.ts&#45;&gt;data/types.ts -->
<g id="edge15" class="edge">
<title>data/utils.ts&#45;&gt;data/types.ts</title>
<path fill="none" stroke="#757575" d="M531.59,-568.05C560.18,-573.72 598.62,-581.34 630.11,-587.59"/>
<polygon fill="#757575" stroke="#757575" points="629.4,-591.02 639.89,-589.53 630.76,-584.15 629.4,-591.02"/>
</g>
<!-- data/storeManager.ts -->
<g id="node26" class="node">
<title>data/storeManager.ts</title>
<path fill="none" stroke="#cfffac" d="M232.33,-653.75C232.33,-653.75 104.67,-653.75 104.67,-653.75 100.71,-653.75 96.75,-649.79 96.75,-645.83 96.75,-645.83 96.75,-637.92 96.75,-637.92 96.75,-633.96 100.71,-630 104.67,-630 104.67,-630 232.33,-630 232.33,-630 236.29,-630 240.25,-633.96 240.25,-637.92 240.25,-637.92 240.25,-645.83 240.25,-645.83 240.25,-649.79 236.29,-653.75 232.33,-653.75"/>
<text text-anchor="middle" x="168.5" y="-636.45" font-family="Arial" font-size="14.00" fill="#cfffac">data/storeManager.ts</text>
</g>
<!-- lib/utils.ts -->
<g id="node27" class="node">
<title>lib/utils.ts</title>
<path fill="none" stroke="#cfffac" d="M196.33,-695.75C196.33,-695.75 140.67,-695.75 140.67,-695.75 136.71,-695.75 132.75,-691.79 132.75,-687.83 132.75,-687.83 132.75,-679.92 132.75,-679.92 132.75,-675.96 136.71,-672 140.67,-672 140.67,-672 196.33,-672 196.33,-672 200.29,-672 204.25,-675.96 204.25,-679.92 204.25,-679.92 204.25,-687.83 204.25,-687.83 204.25,-691.79 200.29,-695.75 196.33,-695.75"/>
<text text-anchor="middle" x="168.5" y="-678.45" font-family="Arial" font-size="14.00" fill="#cfffac">lib/utils.ts</text>
</g>
</g>
</svg>
